<svg fill="none" xmlns="http://www.w3.org/2000/svg" viewBox="0 0 43 36">
  <rect width="43" height="36" rx="4" fill="#7790FF"/>
  <g clip-path="url(#clip0)">
    <path d="M32.435 15.267l-1.844-.4c-.16-.492-.36-.97-.594-1.432l1.021-1.589a.717.717 0 00-.096-.895L28.05 8.078a.717.717 0 00-.895-.096l-1.589 1.02c-.461-.234-.94-.432-1.431-.593l-.401-1.844A.717.717 0 0023.032 6h-4.064a.717.717 0 00-.7.565l-.402 1.844c-.49.16-.97.36-1.431.594l-1.589-1.021a.717.717 0 00-.895.096l-2.873 2.873a.717.717 0 00-.096.895l1.02 1.589c-.234.461-.432.94-.593 1.431l-1.844.401a.717.717 0 00-.565.701v4.064c0 .337.235.629.565.7l1.844.402c.16.49.36.97.594 1.431l-1.021 1.589a.717.717 0 00.096.895l2.873 2.873a.717.717 0 00.895.096l1.589-1.02c.461.234.94.432 1.431.593l.401 1.844c.072.33.364.565.701.565h4.064c.337 0 .63-.235.7-.565l.402-1.844c.49-.16.97-.36 1.431-.594l1.589 1.021a.717.717 0 00.895-.096l2.873-2.873a.717.717 0 00.096-.895l-1.02-1.589c.234-.461.432-.94.593-1.431l1.844-.401a.717.717 0 00.565-.701v-4.064a.717.717 0 00-.565-.7zM25.303 18A4.308 4.308 0 0121 22.303 4.308 4.308 0 0116.697 18 4.308 4.308 0 0121 13.697 4.308 4.308 0 0125.303 18z" fill="#fff"/>
  </g>
  <defs>
    <clipPath id="clip0">
      <path fill="#fff" d="M9 6h24v24H9z"/>
    </clipPath>
  </defs>
</svg>
