<svg fill="none" xmlns="http://www.w3.org/2000/svg" viewBox="0 0 28 30">
  <path d="M1.373 6.255h25.255M8.388 6.952v-2.68c0-.712.296-1.394.822-1.897a2.874 2.874 0 011.984-.785h5.612c.745 0 1.459.282 1.985.785.526.503.822 1.185.822 1.896v2.68m4.209 0V25.72c0 .71-.296 1.393-.822 1.896a2.874 2.874 0 01-1.984.785H6.986A2.874 2.874 0 015 27.615a2.622 2.622 0 01-.822-1.896V6.952h19.643zM9.79 12.807v8.744M14 12.807v8.744M18.21 12.807v8.744" stroke="#7790FF" stroke-width="2" stroke-linecap="round" stroke-linejoin="round"/>
</svg>
